HIERARCHY
ROOT joint_Root
{
	OFFSET 0.0 0.0 0.0
	CHANNELS 6 Xposition Yposition Zposition Zrotation Xrotation Yrotation 
	JOINT Hips
	{
		OFFSET -0.726466 93.3139 -2.00062
		CHANNELS 6 Xposition Yposition Zposition Zrotation Xrotation Yrotation 
		JOINT Spine
		{
			OFFSET 15.7357 0.0 0.0
			CHANNELS 6 Xposition Yposition Zposition Zrotation Xrotation Yrotation 
			JOINT Chest
			{
				OFFSET 8.98455 -0.406207 0.0
				CHANNELS 6 Xposition Yposition Zposition Zrotation Xrotation Yrotation 
				JOINT Neck
				{
					OFFSET 16.3773 0.0 0.0
					CHANNELS 6 Xposition Yposition Zposition Zrotation Xrotation Yrotation 
					JOINT Head
					{
						OFFSET 6.45672 0.0 0.0
						CHANNELS 6 Xposition Yposition Zposition Zrotation Xrotation Yrotation 
						End Site
						{
							OFFSET 0.0 0.0 0.0
						}
					}
				}
				JOINT Shoulder_L
				{
					OFFSET 12.9942 -0.242716 4.98039
					CHANNELS 6 Xposition Yposition Zposition Zrotation Xrotation Yrotation 
					JOINT UpperArm_L
					{
						OFFSET 5.34809 0.0 0.0
						CHANNELS 6 Xposition Yposition Zposition Zrotation Xrotation Yrotation 
						JOINT LowerArm_L
						{
							OFFSET 24.3286 1.87007e-05 0.0
							CHANNELS 6 Xposition Yposition Zposition Zrotation Xrotation Yrotation 
							JOINT Hand_L
							{
								OFFSET 22.2916 0.0 0.0
								CHANNELS 6 Xposition Yposition Zposition Zrotation Xrotation Yrotation 
								End Site
								{
									OFFSET 0.0 0.0 0.0
								}
							}
						}
					}
				}
				JOINT Shoulder_R
				{
					OFFSET 12.9945 -0.242716 -4.98039
					CHANNELS 6 Xposition Yposition Zposition Zrotation Xrotation Yrotation 
					JOINT UpperArm_R
					{
						OFFSET -5.34813 0.0 0.0
						CHANNELS 6 Xposition Yposition Zposition Zrotation Xrotation Yrotation 
						JOINT LowerArm_R
						{
							OFFSET -24.3289 0.000322201 0.0
							CHANNELS 6 Xposition Yposition Zposition Zrotation Xrotation Yrotation 
							JOINT Hand_R
							{
								OFFSET -22.2915 -0.000108084 0.0
								CHANNELS 6 Xposition Yposition Zposition Zrotation Xrotation Yrotation 
								End Site
								{
									OFFSET 0.0 0.0 0.0
								}
							}
						}
					}
				}
			}
		}
		JOINT UpperLeg_L
		{
			OFFSET -2.19248 -6.46944 0.0
			CHANNELS 6 Xposition Yposition Zposition Zrotation Xrotation Yrotation 
			JOINT LowerLeg_L
			{
				OFFSET 39.0811 0.0 -1.23785e-05
				CHANNELS 6 Xposition Yposition Zposition Zrotation Xrotation Yrotation 
				JOINT Foot_L
				{
					OFFSET 40.9854 0.0 -1.26872e-05
					CHANNELS 6 Xposition Yposition Zposition Zrotation Xrotation Yrotation 
					JOINT Toes_L
					{
						OFFSET 11.7543 0.0 0.0
						CHANNELS 6 Xposition Yposition Zposition Zrotation Xrotation Yrotation 
						End Site
						{
							OFFSET 0.0 0.0 0.0
						}
					}
				}
			}
		}
		JOINT UpperLeg_R
		{
			OFFSET -2.19251 6.46944 0.0
			CHANNELS 6 Xposition Yposition Zposition Zrotation Xrotation Yrotation 
			JOINT LowerLeg_R
			{
				OFFSET -39.0811 -0.00228153 -0.0401928
				CHANNELS 6 Xposition Yposition Zposition Zrotation Xrotation Yrotation 
				JOINT Foot_R
				{
					OFFSET -40.9854 0.0 0.0
					CHANNELS 6 Xposition Yposition Zposition Zrotation Xrotation Yrotation 
					JOINT Toes_R
					{
						OFFSET -11.7543 0.0 0.0
						CHANNELS 6 Xposition Yposition Zposition Zrotation Xrotation Yrotation 
						End Site
						{
							OFFSET 0.0 0.0 0.0
						}
					}
				}
			}
		}
	}
}
MOTION
Frames:	8
Frame Time:	0.0333333
0.000000 0.000000 0.000000 0.000000 0.000000 -0.000000 -170.329000 90.243300 186.733000 5.794780 85.783000 88.864700 15.735700 0.000005 -0.000001 86.167600 83.584000 -83.471800 8.984550 -0.406207 -0.000000 5.065120 -0.919301 5.426040 16.377300 -0.000001 -0.000001 1.995050 -1.631040 2.464290 6.456720 -0.000001 -0.000000 3.216400 0.925820 -3.005280 12.994200 -0.242716 4.980390 -89.814200 -0.594259 -72.635300 5.348090 -0.000007 -0.000001 -70.830900 33.127900 -18.482600 24.328600 0.000019 0.000005 4.500800 14.890600 -17.051900 22.291600 -0.000001 0.000005 4.905480 5.449690 -4.619580 12.994500 -0.242716 -4.980390 87.157800 8.592550 -71.618600 -5.348130 -0.000001 -0.000004 -66.020500 27.939400 -11.167900 -24.328900 0.000322 -0.000009 2.990210 12.226800 -13.863100 -22.291500 -0.000108 -0.000004 10.142800 5.318620 -0.455281 -2.192480 -6.469440 -0.000000 -170.728000 -4.943790 -9.009510 39.081100 -0.000007 -0.000012 0.106017 -0.043888 67.509000 40.985400 -0.000006 -0.000013 2.457020 -1.261100 -41.758900 11.754300 -0.000000 0.000003 -0.008697 -0.093639 -20.390600 -2.192510 6.469440 -0.000001 -173.339000 8.971870 166.543000 -39.081100 -0.002282 -0.040193 -0.122247 0.199970 32.121200 -40.985400 0.000008 0.000006 2.060130 -8.163940 -64.832100 -11.754300 -0.000006 -0.000006 -0.010478 -0.107177 -20.940400
0.000000 0.000000 0.000000 0.000000 0.000000 -0.000000 -167.335000 90.817900 186.922000 35.484800 85.973700 58.873100 15.735700 0.000005 -0.000001 92.174800 83.721100 -90.017000 8.984550 -0.406207 -0.000000 4.778600 0.419486 4.293200 16.377300 -0.000001 -0.000001 2.151740 -1.473550 2.761520 6.456720 -0.000001 -0.000000 3.362550 0.078544 -2.380170 12.994200 -0.242716 4.980390 -89.614900 -1.176190 -71.870100 5.348090 -0.000007 -0.000001 -75.729600 28.687400 -12.419600 24.328600 0.000019 0.000005 4.108070 20.314700 -11.693600 22.291600 -0.000001 0.000005 5.517230 5.359760 -1.686340 12.994500 -0.242716 -4.980390 87.342800 8.486780 -72.543500 -5.348130 -0.000001 -0.000004 -63.049900 30.600500 -16.930000 -24.328900 0.000322 -0.000009 3.332080 10.600100 -17.570300 -22.291500 -0.000108 -0.000004 11.173600 5.349240 -1.352660 -2.192480 -6.469440 -0.000000 -172.498000 -7.712390 -14.373200 39.081100 -0.000007 -0.000012 0.098656 -0.035745 70.080500 40.985400 -0.000006 -0.000013 3.961050 -3.451630 -45.059400 11.754300 -0.000000 0.000003 -0.007819 -0.086559 -20.101400 -2.192510 6.469440 -0.000001 -174.467000 9.113860 169.710000 -39.081100 -0.002282 -0.040193 -0.111328 0.200603 29.745000 -40.985400 0.000008 0.000006 2.239180 -6.181450 -65.816400 -11.754300 -0.000006 -0.000006 -0.010266 -0.105614 -20.876500
0.000000 0.000000 0.000000 0.000000 0.000000 -0.000000 -164.284000 91.254500 187.050000 62.381700 84.983200 32.058100 15.735700 0.000005 -0.000001 98.238000 83.643900 -96.624400 8.984550 -0.406207 -0.000000 4.793800 1.776190 3.149380 16.377300 -0.000001 -0.000001 2.169470 -1.291210 2.879140 6.456720 -0.000001 -0.000000 3.558180 -0.609441 -2.111360 12.994200 -0.242716 4.980390 -89.422600 -1.694330 -71.178900 5.348090 -0.000007 -0.000001 -78.977300 22.121800 -6.458760 24.328600 0.000019 0.000005 3.025500 21.609300 -8.167130 22.291600 -0.000001 0.000005 6.666140 5.315080 -0.354320 12.994500 -0.242716 -4.980390 87.617500 8.012070 -73.379700 -5.348130 -0.000001 -0.000004 -59.944400 31.981300 -22.942000 -24.328900 0.000322 -0.000009 3.593650 9.358170 -21.125500 -22.291500 -0.000108 -0.000004 12.042900 5.366110 -1.865760 -2.192480 -6.469440 -0.000000 -174.473000 -9.930350 -18.478600 39.081100 -0.000007 -0.000012 0.082959 -0.031265 69.346100 40.985400 -0.000006 -0.000013 4.829790 -3.867630 -47.955000 11.754300 -0.000000 0.000003 -0.006512 -0.075428 -19.647000 -2.192510 6.469440 -0.000001 -175.960000 9.621230 173.236000 -39.081100 -0.002282 -0.040193 -0.105261 0.209198 27.428300 -40.985400 0.000008 0.000006 2.397970 -3.654570 -66.843200 -11.754300 -0.000006 -0.000006 -0.010429 -0.106820 -20.925800
0.000000 0.000000 0.000000 0.000000 0.000000 -0.000000 -161.297000 91.546900 187.178000 77.087000 83.307000 17.403000 15.735700 0.000005 -0.000001 103.178000 83.466200 -102.096000 8.984550 -0.406207 -0.000000 4.935830 2.946490 2.033960 16.377300 -0.000001 -0.000001 2.059450 -0.930392 3.018460 6.456720 -0.000001 -0.000000 3.465970 -1.132090 -2.212090 12.994200 -0.242716 4.980390 -89.309600 -1.940940 -70.413800 5.348090 -0.000007 -0.000001 -79.681900 15.856900 -1.342600 24.328600 0.000019 0.000005 2.282430 20.088500 -6.618650 22.291600 -0.000001 0.000005 6.112110 5.290860 0.328960 12.994500 -0.242716 -4.980390 87.881200 7.572780 -74.318700 -5.348130 -0.000001 -0.000004 -57.091600 31.829200 -28.673600 -24.328900 0.000322 -0.000009 3.727630 8.182390 -24.605600 -22.291500 -0.000108 -0.000004 12.130900 5.378890 -2.263640 -2.192480 -6.469440 -0.000000 -176.168000 -11.463200 -21.563900 39.081100 -0.000007 -0.000012 0.067407 -0.030910 65.361700 40.985400 -0.000006 -0.000013 5.257030 -2.919410 -51.131900 11.754300 -0.000000 0.000003 -0.006742 -0.077446 -19.729400 -2.192510 6.469440 -0.000001 -177.461000 9.857610 176.618000 -39.081100 -0.002282 -0.040193 -0.103990 0.228828 25.122800 -40.985400 0.000008 0.000006 2.426180 -1.328250 -67.785200 -11.754300 -0.000006 -0.000006 -0.010347 -0.106215 -20.901100
0.000000 0.000000 0.000000 0.000000 0.000000 -0.000000 -158.324000 91.665600 187.286000 84.483700 81.503600 10.069000 15.735700 0.000005 -0.000001 107.510000 83.191800 -106.852000 8.984550 -0.406207 -0.000000 5.206840 4.073280 1.130250 16.377300 -0.000001 -0.000001 1.686080 -0.694286 2.852130 6.456720 -0.000001 -0.000000 3.278510 -1.503330 -2.431440 12.994200 -0.242716 4.980390 -89.393400 -1.649920 -69.808700 5.348090 -0.000007 -0.000001 -78.666100 12.683300 3.270160 24.328600 0.000019 0.000005 2.207740 18.382500 -6.969660 22.291600 -0.000001 0.000005 4.967210 5.275110 0.759544 12.994500 -0.242716 -4.980390 88.080100 7.223980 -75.073700 -5.348130 -0.000001 -0.000004 -54.264900 30.756300 -33.897000 -24.328900 0.000322 -0.000009 3.713740 7.007040 -28.026000 -22.291500 -0.000108 -0.000004 12.049100 5.386670 -2.508700 -2.192480 -6.469440 -0.000000 -177.390000 -12.621500 -23.309100 39.081100 -0.000007 -0.000012 0.055030 -0.034557 57.869200 40.985400 -0.000006 -0.000013 5.157760 -2.500620 -53.161700 11.754300 -0.000000 0.000003 -0.007031 -0.079934 -19.830900 -2.192510 6.469440 -0.000001 -179.025000 10.211300 179.885000 -39.081100 -0.002282 -0.040193 -0.113115 0.274146 23.011200 -40.985400 0.000008 0.000006 2.363900 1.095110 -68.803200 -11.754300 -0.000006 -0.000006 -0.010816 -0.109640 -21.041200
0.000000 0.000000 0.000000 0.000000 0.000000 -0.000000 -155.423000 91.637800 187.395000 87.328700 79.986300 6.963890 15.735700 0.000005 -0.000001 110.655000 83.047500 -110.293000 8.984550 -0.406207 -0.000000 5.244770 4.886260 0.500769 16.377300 -0.000001 -0.000001 1.339550 -0.309755 2.686980 6.456720 -0.000001 -0.000000 3.014910 -1.695780 -2.851930 12.994200 -0.242716 4.980390 -89.501400 -1.306870 -69.113600 5.348090 -0.000007 -0.000001 -77.378600 12.192300 7.107720 24.328600 0.000019 0.000005 2.386900 18.149700 -7.621490 22.291600 -0.000001 0.000005 5.019210 5.293840 0.245062 12.994500 -0.242716 -4.980390 88.223400 7.073220 -75.861900 -5.348130 -0.000001 -0.000004 -51.655500 29.232200 -38.273400 -24.328900 0.000322 -0.000009 3.542050 5.870690 -31.191900 -22.291500 -0.000108 -0.000004 12.421200 5.396540 -2.824800 -2.192480 -6.469440 -0.000000 -178.029000 -13.426200 -23.745700 39.081100 -0.000007 -0.000012 0.036747 -0.034603 46.718700 40.985400 -0.000006 -0.000013 4.868600 -2.527400 -54.407000 11.754300 -0.000000 0.000003 -0.007599 -0.084735 -20.026900 -2.192510 6.469440 -0.000001 179.591000 11.156200 -177.194000 -39.081100 -0.002282 -0.040193 -0.119528 0.322760 20.837700 -40.985400 0.000008 0.000006 2.239410 3.595880 -69.724700 -11.754300 -0.000006 -0.000006 -0.009730 -0.101611 -20.712700
0.000000 0.000000 0.000000 0.000000 0.000000 -0.000000 -152.459000 91.396700 187.515000 87.186600 78.980600 6.621310 15.735700 0.000005 -0.000001 113.426000 82.997600 -113.159000 8.984550 -0.406207 -0.000000 5.090430 5.550130 0.287470 16.377300 -0.000001 -0.000001 1.022660 -0.077702 2.461160 6.456720 -0.000001 -0.000000 2.756400 -1.890190 -3.406790 12.994200 -0.242716 4.980390 -89.524600 -1.228390 -68.839100 5.348090 -0.000007 -0.000001 -76.817600 12.999800 10.108700 24.328600 0.000019 0.000005 2.500220 18.638700 -7.779720 22.291600 -0.000001 0.000005 6.431910 5.315090 -0.353421 12.994500 -0.242716 -4.980390 88.356100 6.832930 -76.437900 -5.348130 -0.000001 -0.000004 -49.893100 27.212900 -41.344700 -24.328900 0.000322 -0.000009 3.749620 5.537190 -34.192100 -22.291500 -0.000108 -0.000004 12.878200 5.405050 -3.102120 -2.192480 -6.469440 -0.000000 -177.920000 -13.340600 -22.485200 39.081100 -0.000007 -0.000012 0.016604 -0.026768 31.809300 40.985400 -0.000006 -0.000013 3.708410 -2.543510 -52.579200 11.754300 -0.000000 0.000003 -0.006415 -0.074567 -19.611900 -2.192510 6.469440 -0.000001 178.580000 12.193000 -174.493000 -39.081100 -0.002282 -0.040193 -0.123326 0.371090 18.844500 -40.985400 0.000008 0.000006 1.949790 5.648310 -70.766300 -11.754300 -0.000006 -0.000006 -0.008675 -0.093458 -20.379500
0.000000 0.000000 0.000000 0.000000 0.000000 -0.000000 -149.378000 90.818300 187.598000 86.214700 78.266100 6.741620 15.735700 0.000005 -0.000001 116.444000 83.137600 -116.224000 8.984550 -0.406207 -0.000000 4.531770 6.095150 0.199015 16.377300 -0.000001 -0.000001 0.734536 0.140124 2.258970 6.456720 -0.000001 -0.000000 2.710580 -1.964060 -3.805840 12.994200 -0.242716 4.980390 -89.367900 -1.608680 -68.546400 5.348090 -0.000007 -0.000001 -76.846800 13.457400 12.003200 24.328600 0.000019 0.000005 2.354120 19.367500 -7.066730 22.291600 -0.000001 0.000005 7.676320 5.317690 -0.430782 12.994500 -0.242716 -4.980390 88.440700 6.680880 -76.830600 -5.348130 -0.000001 -0.000004 -48.842200 25.350600 -43.085900 -24.328900 0.000322 -0.000009 4.051180 5.412920 -36.906700 -22.291500 -0.000108 -0.000004 13.607400 5.410640 -3.285990 -2.192480 -6.469440 -0.000000 -177.427000 -12.159300 -20.224700 39.081100 -0.000007 -0.000012 -0.002117 0.007976 14.861800 40.985400 -0.000006 -0.000013 4.380130 -1.579700 -48.916600 11.754300 -0.000000 0.000003 -0.006514 -0.075447 -19.647800 -2.192510 6.469440 -0.000001 178.073000 11.903900 -172.827000 -39.081100 -0.002282 -0.040193 -0.142663 0.441773 18.286700 -40.985400 0.000008 0.000006 1.371140 6.053160 -72.566100 -11.754300 -0.000006 -0.000006 -0.007630 -0.084983 -20.033300
